TITLE ""
FILE "P1Q_t_1230-1238.mp3" MP3
  TRACK 01 AUDIO
    TITLE "P1Q_t_1230-1238_01"
    INDEX 01 00:00:00
  TRACK 02 AUDIO
    TITLE "P1Q_t_1230-1238_02"
    INDEX 01 00:01:22
  TRACK 03 AUDIO
    TITLE "P1Q_t_1230-1238_03"
    INDEX 01 00:01:45
  TRACK 04 AUDIO
    TITLE "P1Q_t_1230-1238_04"
    INDEX 01 00:07:46
  TRACK 05 AUDIO
    TITLE "P1Q_t_1230-1238_05"
    INDEX 01 00:07:67
  TRACK 06 AUDIO
    TITLE "P1Q_t_1230-1238_06"
    INDEX 01 00:13:05
  TRACK 07 AUDIO
    TITLE "P1Q_t_1230-1238_07"
    INDEX 01 00:13:54
  TRACK 08 AUDIO
    TITLE "P1Q_t_1230-1238_08"
    INDEX 01 00:14:67
  TRACK 09 AUDIO
    TITLE "P1Q_t_1230-1238_09"
    INDEX 01 00:15:14
  TRACK 10 AUDIO
    TITLE "P1Q_t_1230-1238_10"
    INDEX 01 00:16:43
  TRACK 11 AUDIO
    TITLE "P1Q_t_1230-1238_11"
    INDEX 01 00:16:64
  TRACK 12 AUDIO
    TITLE "P1Q_t_1230-1238_12"
    INDEX 01 00:21:34
  TRACK 13 AUDIO
    TITLE "P1Q_t_1230-1238_13"
    INDEX 01 00:22:06
  TRACK 14 AUDIO
    TITLE "P1Q_t_1230-1238_14"
    INDEX 01 00:23:11
  TRACK 15 AUDIO
    TITLE "P1Q_t_1230-1238_15"
    INDEX 01 00:23:31
  TRACK 16 AUDIO
    TITLE "P1Q_t_1230-1238_16"
    INDEX 01 00:26:35
  TRACK 17 AUDIO
    TITLE "P1Q_t_1230-1238_17"
    INDEX 01 00:26:55
  TRACK 18 AUDIO
    TITLE "P1Q_t_1230-1238_18"
    INDEX 01 00:31:01
  TRACK 19 AUDIO
    TITLE "P1Q_t_1230-1238_19"
    INDEX 01 00:31:46
  TRACK 20 AUDIO
    TITLE "P1Q_t_1230-1238_20"
    INDEX 01 00:32:71
  TRACK 21 AUDIO
    TITLE "P1Q_t_1230-1238_21"
    INDEX 01 00:33:16
  TRACK 22 AUDIO
    TITLE "P1Q_t_1230-1238_22"
    INDEX 01 00:37:39
  TRACK 23 AUDIO
    TITLE "P1Q_t_1230-1238_23"
    INDEX 01 00:37:60
  TRACK 24 AUDIO
    TITLE "P1Q_t_1230-1238_24"
    INDEX 01 00:42:44
  TRACK 25 AUDIO
    TITLE "P1Q_t_1230-1238_25"
    INDEX 01 00:43:14
  TRACK 26 AUDIO
    TITLE "P1Q_t_1230-1238_26"
    INDEX 01 00:44:23
  TRACK 27 AUDIO
    TITLE "P1Q_t_1230-1238_27"
    INDEX 01 00:44:68
  TRACK 28 AUDIO
    TITLE "P1Q_t_1230-1238_28"
    INDEX 01 00:46:22
  TRACK 29 AUDIO
    TITLE "P1Q_t_1230-1238_29"
    INDEX 01 00:46:42
  TRACK 30 AUDIO
    TITLE "P1Q_t_1230-1238_30"
    INDEX 01 00:47:39
  TRACK 31 AUDIO
    TITLE "P1Q_t_1230-1238_31"
    INDEX 01 00:47:59
  TRACK 32 AUDIO
    TITLE "P1Q_t_1230-1238_32"
    INDEX 01 00:51:74
  TRACK 33 AUDIO
    TITLE "P1Q_t_1230-1238_33"
    INDEX 01 00:52:44
  TRACK 34 AUDIO
    TITLE "P1Q_t_1230-1238_34"
    INDEX 01 00:53:69
  TRACK 35 AUDIO
    TITLE "P1Q_t_1230-1238_35"
    INDEX 01 00:54:14
  TRACK 36 AUDIO
    TITLE "P1Q_t_1230-1238_36"
    INDEX 01 00:56:25
  TRACK 37 AUDIO
    TITLE "P1Q_t_1230-1238_37"
    INDEX 01 00:56:44
  TRACK 38 AUDIO
    TITLE "P1Q_t_1230-1238_38"
    INDEX 01 01:00:50
  TRACK 39 AUDIO
    TITLE "P1Q_t_1230-1238_39"
    INDEX 01 01:01:24
  TRACK 40 AUDIO
    TITLE "P1Q_t_1230-1238_40"
    INDEX 01 01:02:33
  TRACK 41 AUDIO
    TITLE "P1Q_t_1230-1238_41"
    INDEX 01 01:02:54
  TRACK 42 AUDIO
    TITLE "P1Q_t_1230-1238_42"
    INDEX 01 01:07:30
  TRACK 43 AUDIO
    TITLE "P1Q_t_1230-1238_43"
    INDEX 01 01:07:50
  TRACK 44 AUDIO
    TITLE "P1Q_t_1230-1238_44"
    INDEX 01 01:11:16
  TRACK 45 AUDIO
    TITLE "P1Q_t_1230-1238_45"
    INDEX 01 01:11:61
  TRACK 46 AUDIO
    TITLE "P1Q_t_1230-1238_46"
    INDEX 01 01:12:69
  TRACK 47 AUDIO
    TITLE "P1Q_t_1230-1238_47"
    INDEX 01 01:13:13
  TRACK 48 AUDIO
    TITLE "P1Q_t_1230-1238_48"
    INDEX 01 01:14:07
  TRACK 49 AUDIO
    TITLE "P1Q_t_1230-1238_49"
    INDEX 01 01:14:24
  TRACK 50 AUDIO
    TITLE "P1Q_t_1230-1238_50"
    INDEX 01 01:17:68
  TRACK 51 AUDIO
    TITLE "P1Q_t_1230-1238_51"
    INDEX 01 01:18:40
  TRACK 52 AUDIO
    TITLE "P1Q_t_1230-1238_52"
    INDEX 01 01:19:65
  TRACK 53 AUDIO
    TITLE "P1Q_t_1230-1238_53"
    INDEX 01 01:20:11
  TRACK 54 AUDIO
    TITLE "P1Q_t_1230-1238_54"
    INDEX 01 01:23:29
  TRACK 55 AUDIO
    TITLE "P1Q_t_1230-1238_55"
    INDEX 01 01:23:47
  TRACK 56 AUDIO
    TITLE "P1Q_t_1230-1238_56"
    INDEX 01 01:28:09
